# xmcd CD database file
#
# Track frame offsets:
#	150
#	21138
#	40580
#	61568
#
# Disc length: 1076 seconds
#
# Revision: 0
# Processed by: cddbd v1.5.1PL0 Copyright (c) Steve Scherf et al.
# Submitted via: CDex 1.50
#
DISCID=21043204
DTITLE=真咲よう子 - 織部川恋唄
DYEAR=1900
DGENRE=Japanese Pop
TTITLE0=織部川恋唄
TTITLE1=つばき咲くふる里
TTITLE2=織部川恋唄 (カラオケ)
TTITLE3=つばき咲くふる里 (カラオケ)
EXTD=
EXTT0=
EXTT1=
EXTT2=
EXTT3=
PLAYORDER=
